inDegrees=no
num_controls=7
num_derivatives=13
num_iterations=132
num_multipliers=7
num_parameters=0
num_slacks=7
num_states=26
objective=5.584205
objective_accelerations=0.602726
objective_balance=0.016797
objective_effort=0.453627
objective_height=4.487086
objective_ligament=0.023968
solver_duration=1165.352613
status=Solve_Succeeded
success=true
DataType=double
version=3
OpenSimVersion=4.4-2022-07-23-0e9fedc
endheader
time	/jointset/ground_pelvis/pelvis_tilt/value	/jointset/ground_pelvis/pelvis_tx/value	/jointset/ground_pelvis/pelvis_ty/value	/jointset/hip_r/hip_flexion_r/value	/jointset/hip_r/hip_adduction_r/value	/jointset/hip_r/hip_rotation_r/value	/jointset/back/lumbar_extension/value	/jointset/patellofemoral_r/patellar_flexion_r/value	/jointset/knee_r/knee_flexion_r/value	/jointset/knee_r/knee_adduction_r/value	/jointset/knee_r/knee_rotation_r/value	/jointset/ankle_r/ankle_angle_r/value	/jointset/subtalar_r/subtalar_angle_r/value	/jointset/ground_pelvis/pelvis_tilt/speed	/jointset/ground_pelvis/pelvis_tx/speed	/jointset/ground_pelvis/pelvis_ty/speed	/jointset/hip_r/hip_flexion_r/speed	/jointset/hip_r/hip_adduction_r/speed	/jointset/hip_r/hip_rotation_r/speed	/jointset/back/lumbar_extension/speed	/jointset/patellofemoral_r/patellar_flexion_r/speed	/jointset/knee_r/knee_flexion_r/speed	/jointset/knee_r/knee_adduction_r/speed	/jointset/knee_r/knee_rotation_r/speed	/jointset/ankle_r/ankle_angle_r/speed	/jointset/subtalar_r/subtalar_angle_r/speed	/forceset/tau_hip_flexion_r	/forceset/tau_hip_adduction_r	/forceset/tau_hip_rotation_r	/forceset/tau_knee_flexion_r	/forceset/tau_ankle_angle_r	/forceset/tau_subtalar_angle_r	/forceset/tau_lumbar_extension	lambda_cid13_p0	lambda_cid14_p0	lambda_cid14_p1	lambda_cid14_p2	lambda_cid14_p3	lambda_cid14_p4	lambda_cid14_p5	/jointset/ground_pelvis/pelvis_tilt/accel	/jointset/ground_pelvis/pelvis_tx/accel	/jointset/ground_pelvis/pelvis_ty/accel	/jointset/hip_r/hip_flexion_r/accel	/jointset/hip_r/hip_adduction_r/accel	/jointset/hip_r/hip_rotation_r/accel	/jointset/back/lumbar_extension/accel	/jointset/patellofemoral_r/patellar_flexion_r/accel	/jointset/knee_r/knee_flexion_r/accel	/jointset/knee_r/knee_adduction_r/accel	/jointset/knee_r/knee_rotation_r/accel	/jointset/ankle_r/ankle_angle_r/accel	/jointset/subtalar_r/subtalar_angle_r/accel	gamma_cid13_p0	gamma_cid14_p0	gamma_cid14_p1	gamma_cid14_p2	gamma_cid14_p3	gamma_cid14_p4	gamma_cid14_p5
1	-0.2355846363328948	-0.01108365811344577	0.6369783489252721	1.423819442547017	-0.2380259137824307	-0.0887166589620508	-0.785397741205048	1.50502212581034	1.505022125810298	-0.1744891912865875	0.1738050990941321	0.4362555829446925	0.1763530766669492	0.06966215714273299	0.005660958274796865	0.01686228092044791	-0.104428913489099	-0.001190413186545512	0.001421680710452324	-7.602795112447326e-05	-0.02146374193058451	-0.02146374193060099	0.009175660369547643	-0.0001787196770919037	0.01262414678214622	0.004231578361324809	-0.3330241151725011	0.01991878088352859	0.01049784787951544	-0.4605211891288936	-0.02133195440589892	0.01123581360048914	0.3575517922453543	-0.0410935627692908	-57.84650303697155	-7.884055449064999	4.688974919205229	5.812834320687991	-769.7671216138151	75.81749195685366	1.249537792205051	0.1758370946513556	1.831375226896287	-5.475842554648636	0.2319596396795729	-0.4059180966148757	-0.02386586455916938	-5.045825140283657	-5.045825140284056	0.9188361328021543	0.008486024039493459	-0.9974525764830272	-0.06673288557927222	1.660189940210607e-09	2.298065195353906e-09	1.590404050826683e-08	1.368125613805536e-08	-1.799140423108154e-09	-4.899952265935189e-09	3.018460446143275e-08
1.01	-0.2348265832837599	-0.01101814348175043	0.6372383034497321	1.422502680904292	-0.238026369021233	-0.0887199382129954	-0.7853974664733699	1.504555883428853	1.504555883428807	-0.1743486172966047	0.1738035291824163	0.4363320753678636	0.1763917669224717	0.08190754373391008	0.007456547572397955	0.03511728189225053	-0.1588786084918353	0.001090329046783379	-0.002057204970554388	0.0002808078135017114	-0.07176076919822229	-0.07176076919823331	0.01896487086090758	-0.0001271132253221976	0.002691381656240923	0.00349744257604879	-0.3333685289387279	0.01992702466720508	0.01055586527886017	-0.4603705299655385	-0.02149485298369605	0.01124221948866056	0.3581696490392287	-0.04109076392237661	-57.90538565449898	-7.886714478490131	4.683837695982092	5.652518733653807	-769.996856726553	75.8129741886369	1.205904832943345	0.1836053182513393	1.820859043419019	-5.422810022781226	0.2247829600347705	-0.315821186722864	0.08793333945418506	-5.018048089651164	-5.018048089650161	1.012822951002139	0.004735158446880439	-0.9886319973849464	-0.07809464257299062	6.677374174660374e-09	1.072612058701547e-08	4.754229187846716e-08	5.360877005630549e-08	-7.227785132551201e-09	-1.082529799663794e-08	9.948013072801011e-08
1.02	-0.233947303220607	-0.01093423586289141	0.6376804672861299	1.420642766901622	-0.2380042865487066	-0.08875739579739762	-0.7853891283772134	1.50358738946076	1.503587389460763	-0.1741093793127783	0.1738027227756978	0.4363097514397942	0.1764228476766285	0.09390755993981492	0.009339555707532964	0.05330414330779001	-0.213059385482423	0.003317129075150527	-0.005413985966745345	0.00153664527724388	-0.1219140592517383	-0.1219140592517414	0.02890845910023597	-2.601866552596002e-05	-0.007139124139260858	0.002709678087948459	-0.3337129427049427	0.01993526845078249	0.01061388267906167	-0.460219870802089	-0.02165775156151894	0.01124862537661552	0.3587875058331254	-0.04109506908467176	-57.97165917222245	-7.886267474387887	4.673178858334991	5.490716514519057	-770.3497886972286	75.844033444128	1.200463715150277	0.1933208621585815	1.817747315643669	-5.422058952219182	0.221171198687177	-0.3814971596522223	0.1559344752599426	-5.017077697459057	-5.017077697458976	0.9497116823952566	0.0183836456447212	-0.9770007104014011	-0.07745862614373243	1.254399196940831e-08	1.862522333962785e-08	7.869882303659475e-08	9.695941556906633e-08	-1.030867891843e-08	-1.892729611718813e-08	1.728217450544993e-07
1.03	-0.232949164556498	-0.01083109444330757	0.6383042009222804	1.418242260311093	-0.2379601751764747	-0.08882791307185599	-0.7853633141405476	1.50211779260809	1.502117792608085	-0.173769977652667	0.1738031606708223	0.4361893742049718	0.176445708758672	0.1056870612500772	0.01130012930245712	0.07143546868544202	-0.2670098008414044	0.005499245010036182	-0.008675868573847802	0.003819573085386954	-0.1720101739181762	-0.1720101739181685	0.03899670496297269	0.0001194141389809727	-0.01694507365468178	0.001846302382627938	-0.3347662850995866	0.02017417215330583	0.01068447855710307	-0.4593307050731156	-0.02305282574050834	0.01129883137644118	0.360018438098578	-0.04111564769339916	-58.45461767383722	-7.92030856014155	4.645804448354261	5.717437197320471	-770.9654039608582	75.76272001008209	1.16173220469396	0.1991330818424133	1.809752403818364	-5.37670780209378	0.2158648596437812	-0.296482554145435	0.2934775729893933	-5.006611465354444	-5.006611465352979	1.042102914474867	0.01353343354446011	-0.9837044939516056	-0.09317850312559908	1.841927745354705e-08	2.651892861633155e-08	1.098504386823543e-07	1.403449909960569e-07	-1.33656160622316e-08	-2.705150497641024e-08	2.462046459938447e-07
1.04	-0.2318342231061097	-0.0107080057930378	0.6391090332632069	1.415303214572114	-0.2378944160311261	-0.08893063892102492	-0.7853088694974055	1.500147087985931	1.500147087985955	-0.1733289491586531	0.1738052349610829	0.4359706749903838	0.1764594557915836	0.1172681171894935	0.01332900184472023	0.08952388426274922	-0.320767215174661	0.007646683695120632	-0.01185570089719621	0.007262726469395945	-0.2221356131493289	-0.2221356131493105	0.04923382587618896	0.0003012603711025333	-0.02680352004364367	0.0008868682613524317	-0.3358196274942863	0.02041307585575627	0.01075507443565746	-0.4584415393440878	-0.02444789991950773	0.01134903737611468	0.3612493703639786	-0.04114330783085096	-58.94504952796407	-7.951076656087421	4.612674611315688	5.940778937508803	-771.7073808932079	75.71745997063775	1.160774640980777	0.2069806516268524	1.809165355574732	-5.383458747074526	0.214235748726839	-0.3650871029016001	0.3879795904305428	-5.022942610401741	-5.02294261040171	0.9794866924909623	0.02566633116761824	-0.9875000851086203	-0.09667030933440385	2.37691024419316e-08	3.496370037247729e-08	1.394728617793329e-07	1.823182289954238e-07	-1.853132637675436e-08	-3.278964893451766e-08	3.150037544977195e-07
1.05	-0.230604548536865	-0.01056426487850669	0.6400944426350532	1.411827820377473	-0.2378073692664731	-0.0890647910374046	-0.7852143968566409	1.497675107220584	1.497675107220601	-0.1727848645925793	0.1738093045097819	0.4356530740989644	0.1764630763679161	0.128622307033968	0.01543276287233083	0.1075413182515034	-0.3742504894006448	0.009756348775590101	-0.01495991149460652	0.01180830284015796	-0.2722526797264002	-0.2722526797263761	0.05960575595081534	0.0005153471242523639	-0.03673092347372745	-0.0001825292175491718	-0.3361293738076963	0.0205637304572173	0.01091354347248929	-0.4576003057063735	-0.02513245048738808	0.01133161659883516	0.3618862200695936	-0.04117810354865086	-59.17305607207297	-7.977170238765138	4.592397127772456	5.980768583054654	-771.879049405283	75.65019560654463	1.116076466392066	0.2141062952961637	1.795523894441399	-5.321583290951741	0.2084127804731748	-0.2808479115114254	0.5143218288580673	-5.004915526245499	-5.004915526244596	1.069441321873531	0.01974452081391032	-0.9974995553450717	-0.1149877327789015	2.910250678982383e-08	4.342569295610558e-08	1.69047497609162e-07	2.242473314501774e-07	-2.376293585286214e-08	-3.845322836446527e-08	3.836596194879859e-07
1.06	-0.2292626650071307	-0.01039907986030544	0.6412595246415713	1.407819429134459	-0.2376994096724441	-0.08922953723449462	-0.7850691734183317	1.494702190420488	1.494702190420534	-0.1721363816943664	0.173815607860647	0.4352357713565181	0.1764554203163393	0.1397099092868985	0.01761782257874697	0.1254584111968213	-0.4273666248502803	0.01182924956673128	-0.01797451702603966	0.0174128859492658	-0.322322820098895	-0.322322820098866	0.0701134923024483	0.0007480208143946868	-0.04674389023927569	-0.001368457320870068	-0.3364391201211116	0.02071438505860128	0.01107201250975107	-0.456759072068621	-0.02581700105529492	0.01131419582138908	0.3625230697751978	-0.04122009262942778	-59.40862791700784	-7.999869004015098	4.566187243150415	6.017146666152731	-772.179362248505	75.61940307296717	1.107457122671779	0.2232403873882353	1.789097146887504	-5.310030991805066	0.2068828908611353	-0.3471660897062492	0.5997809380986975	-5.013557369486312	-5.01355736948642	1.006647947892171	0.02938371856607307	-1.004612752200951	-0.1199764342180561	3.382515430845192e-08	5.069814561844806e-08	1.95032335408819e-07	2.622064806944697e-07	-2.798862954419854e-08	-4.363303903411284e-08	4.427880460333617e-07
1.07	-0.2278110507441134	-0.01021160596281877	0.6426032129909458	1.403281656837898	-0.2375709275518059	-0.08942411663795889	-0.7848628094867458	1.491228937757713	1.491228937757727	-0.1713822945047296	0.1738243397333553	0.4347179161353706	0.1764352875986187	0.1505846183456141	0.01989369578065058	0.1432561015464005	-0.4801298537618083	0.01385932207525247	-0.02093000082630241	0.0240195764574863	-0.3723063420211721	-0.3723063420211444	0.0807206427276978	0.0009994363785274464	-0.05684094977564905	-0.002680159632183328	-0.3364259942921546	0.02081285457420584	0.01128217534651207	-0.4556216490462551	-0.02637989485299661	0.01129233192788833	0.3628940539622933	-0.04126700437161514	-59.57517090388131	-8.008590057997148	4.533384965835278	6.00682953059327	-772.0461166964045	75.56102565251454	1.073240570413233	0.2322651253615045	1.771621578944452	-5.250760745225034	0.1999304589618197	-0.2680100337497407	0.7150645182458837	-4.98755180740671	-4.987551807406767	1.090246324588483	0.02326256125872575	-1.014320864330131	-0.1400078982792172	3.851531476169361e-08	5.790732488072214e-08	2.208262265047433e-07	2.999544622148011e-07	-3.21608170767705e-08	-4.87871173228934e-08	5.014096939380518e-07
1.08	-0.2262515368359159	-0.01000087246555871	0.6441241815638079	1.398217993871386	-0.2374223725004367	-0.08964790498120073	-0.7845855883678025	1.487256489434952	1.487256489434937	-0.1705216362638693	0.1738356341788434	0.4340986766568455	0.1764013897040485	0.161289838322012	0.02226974253342649	0.1609144558940407	-0.532544758849251	0.01584383570836178	-0.02381630496909449	0.03158432340819062	-0.4221619520957737	-0.4221619520957473	0.09142770254283482	0.001260535379518828	-0.06702074171099912	-0.004121492691133419	-0.3364128684630107	0.02091132408975306	0.01149233818355602	-0.4544842260238544	-0.02694278865074677	0.01127046803425023	0.3632650381495585	-0.04132122964390535	-59.74942347092736	-8.013855750559721	4.494542628663901	5.992480238035576	-772.0446914055626	75.53918843002279	1.07355930620804	0.2432750975629192	1.761229946499713	-5.240366226988169	0.1977711157787354	-0.3333301582121488	0.791392226594947	-4.987974999951092	-4.987974999951168	1.026629825869614	0.03132040593774492	-1.021159231995847	-0.1459025837452478	4.23285326998995e-08	6.36084974755752e-08	2.409150029463609e-07	3.313444823445872e-07	-3.545368879236544e-08	-5.282483298582506e-08	5.46850461498899e-07
